# xmcd
#
# Track frame offsets: 
#        150
#        15379
#        20265
#        32236
#        42762
#        53983
#        70078
#        82302
#        91368
#        99878
#        107554
#        115108
#        120619
#        128652
#        134611
#        140067
#        144277
#        153813
#        163989
#
# Disc length: 2359 seconds
#
# Revision: 3
# Processed by: cddbd v1.5.2PL0 Copyright (c) Steve Scherf et al.
# Submitted via: ExactAudioCopy v1.3
#
DISCID=fb093513
DTITLE=Clarence White - Clarence White_Flatpick CD1
DYEAR=2006
DGENRE=Bluegrass
TTITLE0=John Henry Blues (1964)
TTITLE1=Reno Ride
TTITLE2=Salt Creek
TTITLE3=Kickin' Mule
TTITLE4=Big Sandy River
TTITLE5=Sheik of Araby
TTITLE6=Black Mountain Blues and Soldier's Joy
TTITLE7=Durham's Reel
TTITLE8=Barefoot Nellie
TTITLE9=Weeping Willow
TTITLE10=Ragtime Annie
TTITLE11=When You're Smiling
TTITLE12=Columbus Stockade Blues
TTITLE13=Texas Gales and Blackberry Rag
TTITLE14=Silver Bells
TTITLE15=San Antonio Rose
TTITLE16=Listen To The Mocking Bird
TTITLE17=Laughing Guitar (1967)
TTITLE18=Alabama Jubilee (1973)
EXTD=
EXTT0=
EXTT1=
EXTT2=
EXTT3=
EXTT4=
EXTT5=
EXTT6=
EXTT7=
EXTT8=
EXTT9=
EXTT10=
EXTT11=
EXTT12=
EXTT13=
EXTT14=
EXTT15=
EXTT16=
EXTT17=
EXTT18=
PLAYORDER=
